<?xml version="1.0" encoding="utf-8"?>
<!-- Generator: Adobe Illustrator 23.0.1, SVG Export Plug-In . SVG Version: 6.00 Build 0)  -->
<svg version="1.1" id="Layer_1" xmlns="http://www.w3.org/2000/svg" xmlns:xlink="http://www.w3.org/1999/xlink" x="0px" y="0px"
	 width="240px" height="240px" viewBox="0 0 240 240" style="enable-background:new 0 0 240 240;" xml:space="preserve">
<style type="text/css">
	.st0{fill:#FFFFFF;}
	.st1{fill:#00FF00;}
	.st2{fill:#0000FF;}
</style>
<rect class="st0" width="240" height="240"/>
<g>
	<g>
		<g>
			<path class="st1" d="M65.3,108.2C64.4,112,64,116,64,120c0,31,25,56,56,56c4,0,8.1-0.5,11.8-1.3c-12.4-3.2-27.6-12.2-41-25.6
				C77.6,135.8,68.5,120.6,65.3,108.2z"/>
		</g>
		<path class="st2" d="M150.4,174.6c-16,0-37.3-10.5-55.8-29.1c-26.9-26.9-36.9-59.2-22.7-73.6s46.5-4.4,73.6,22.6
			c26.9,27,36.9,59.3,22.6,73.6l0,0C163.7,172.5,157.5,174.6,150.4,174.6z M89.6,73.3c-5,0-9.2,1.3-12.1,4.3
			c-10.7,10.7-0.3,39.2,22.6,62.2c23,23,51.5,33.3,62.2,22.6s0.4-39.2-22.6-62.2C123,83.4,103.2,73.3,89.6,73.3z"/>
		<path class="st1" d="M120,64c-8.7,0-16.8,2-24.1,5.5c-7.1,3.4-13.4,8.2-18.4,14.2c-1.1,13.6,9.1,34.5,26.8,52.2
			s38.6,27.8,52.2,26.8c5.9-5.1,10.8-11.4,14.2-18.6c3.4-7.3,5.4-15.3,5.4-24C176,89,151,64,120,64z"/>
	</g>
</g>
</svg>
